# xmcd CD database file generated by OrangeCD 6.5
#
# Track frame offsets:
#	150
#	43572
#	116244
#	162516
#	197163
#	240074
#	285008
#	329848
#
# Disc length: 4646 seconds
#
# Revision: 0
# Processed by: cddbd v1.5.2PL0 Copyright (c) Steve Scherf et al.
# Submitted via: OrangeCD 6.5
#
DISCID=6a122408
DTITLE=Rory Gallagher - Blues On The Road
DYEAR=1900
DGENRE=
TTITLE0=Messin' With The Kid
TTITLE1=Cradle Rock - Just A Little Bit
TTITLE2=I Wonder Who
TTITLE3=Tatoo'd Lady
TTITLE4=Walk On Hot Coals
TTITLE5=A Million Miles Away
TTITLE6=Hands Off
TTITLE7=Pistol Slapper Blues
EXTD=
EXTT0=
EXTT1=
EXTT2=
EXTT3=
EXTT4=
EXTT5=
EXTT6=
EXTT7=
PLAYORDER=
